# xmcd CD database file
#
# Track frame offsets:
#	150
#	14693
#	30836
#	45952
#	56030
#	70093
#	81905
#	93886
#	117314
#	140252
#	161666
#	179969
#	192542
#	200920
#	215208
#	227986
#	241466
#	255485
#
# Disc length: 3597 seconds
#
# Revision: 1
# Processed by: cddbd v1.5.1PL0 Copyright (c) Steve Scherf et al.
# Submitted via: CDex 1.51
#
DISCID=0b0e0b12
DTITLE=Various Artist - American Country
DYEAR=1900
DGENRE=Country
TTITLE0=Take Me Home Country Roads
TTITLE1=You Are Still The One
TTITLE2=I Beg Your Pardon
TTITLE3=Bye Bye Love
TTITLE4=Annie's Song
TTITLE5=Always
TTITLE6=Glory Of Love
TTITLE7=Something About The Way You Took Tonight
TTITLE8=Blessed
TTITLE9=Have It Old You Lately
TTITLE10=Can You Feel The Love Tonight
TTITLE11=I Can't Stop Loving You
TTITLE12=From A Jack To A King
TTITLE13=The Sound Of Silence
TTITLE14=Blowing In The Wind
TTITLE15=Cotton Field
TTITLE16=Green Grean Grass Of Home
TTITLE17=Are You Lonesome Tonight
EXTD=
EXTT0=
EXTT1=
EXTT2=
EXTT3=
EXTT4=
EXTT5=
EXTT6=
EXTT7=
EXTT8=
EXTT9=
EXTT10=
EXTT11=
EXTT12=
EXTT13=
EXTT14=
EXTT15=
EXTT16=
EXTT17=
PLAYORDER=
